<svg
  width="48"
  height="48"
  viewBox="7.5 3.5 17 25"
  fill="none"
  xmlns="http://www.w3.org/2000/svg"
>
  <!-- Ledger Book Base -->
  <rect
    x="8"
    y="10"
    width="16"
    height="18"
    rx="2"
    fill="url(#gradient)"
  />

  <!-- Book Pages Detail -->
  <rect
    x="10"
    y="12"
    width="12"
    height="1"
    rx="0.5"
    fill="white"
    fill-opacity="0.4"
  />
  <rect
    x="10"
    y="15"
    width="12"
    height="1"
    rx="0.5"
    fill="white"
    fill-opacity="0.4"
  />
  <rect
    x="10"
    y="18"
    width="8"
    height="1"
    rx="0.5"
    fill="white"
    fill-opacity="0.4"
  />

  <!-- Crown Element on Top -->
  <path
    d="M12 4L13.5 8L16 5L18.5 8L20 4L21 9H11L12 4Z"
    fill="#FFD700"
  />
  <path
    d="M12 4L13.5 8L16 5L18.5 8L20 4L21 9H11L12 4Z"
    fill="url(#crownGradient)"
  />

  <defs>
    <linearGradient
      id="gradient"
      x1="8"
      y1="10"
      x2="24"
      y2="28"
      gradientUnits="userSpaceOnUse"
    >
      <stop stop-color="#9333EA" />
      <stop offset="1" stop-color="#A855F7" />
    </linearGradient>
    <linearGradient
      id="crownGradient"
      x1="11"
      y1="4"
      x2="21"
      y2="9"
      gradientUnits="userSpaceOnUse"
    >
      <stop stop-color="#FCD34D" />
      <stop offset="1" stop-color="#F59E0B" />
    </linearGradient>
  </defs>
</svg>
